<?xml version="1.0" encoding="utf-8"?>
<!-- Generator: Adobe Illustrator 16.0.4, SVG Export Plug-In . SVG Version: 6.00 Build 0)  -->
<!DOCTYPE svg PUBLIC "-//W3C//DTD SVG 1.1//EN" "http://www.w3.org/Graphics/SVG/1.1/DTD/svg11.dtd">
<svg version="1.1" id="Layer_1" xmlns="http://www.w3.org/2000/svg" xmlns:xlink="http://www.w3.org/1999/xlink" x="0px" y="0px"
	 width="373.637px" height="122.333px" viewBox="0 16.815 373.637 122.333" enable-background="new 0 16.815 373.637 122.333"
	 xml:space="preserve">
<g>
	<g>
		<path fill="#FFFFFF" d="M19.998,40.968h22.659v3.29h-19.1v11.307h17.071v3.195h-17.07v13.738h-3.56V40.968z"/>
		<path fill="#FFFFFF" d="M63.198,73.042c-2.405,0-4.587-0.434-6.557-1.305c-1.966-0.871-3.655-2.047-5.067-3.537
			c-1.412-1.483-2.5-3.213-3.264-5.178c-0.769-1.966-1.15-4.029-1.15-6.193v-0.09c0-2.162,0.388-4.231,1.17-6.215
			c0.781-1.982,1.879-3.719,3.289-5.205c1.413-1.486,3.11-2.673,5.092-3.559c1.979-0.885,4.171-1.327,6.574-1.327
			c2.405,0,4.587,0.436,6.559,1.304c1.964,0.872,3.653,2.051,5.066,3.537c1.411,1.486,2.5,3.213,3.265,5.178
			c0.766,1.967,1.147,4.031,1.147,6.195c0.032,0.027,0.032,0.061,0,0.09c0,2.161-0.39,4.234-1.17,6.219
			c-0.781,1.981-1.877,3.716-3.289,5.199c-1.413,1.486-3.107,2.674-5.088,3.559C67.793,72.599,65.6,73.042,63.198,73.042z
			 M63.288,69.756c1.805,0,3.46-0.342,4.978-1.019c1.517-0.672,2.813-1.596,3.895-2.771c1.086-1.17,1.936-2.534,2.547-4.097
			c0.618-1.561,0.927-3.246,0.927-5.046v-0.089c0-1.8-0.309-3.49-0.927-5.068c-0.612-1.576-1.481-2.95-2.589-4.122
			c-1.11-1.17-2.426-2.102-3.94-2.791c-1.518-0.691-3.176-1.038-4.979-1.038c-1.805,0-3.46,0.342-4.979,1.019
			c-1.517,0.673-2.813,1.596-3.893,2.769c-1.085,1.172-1.935,2.536-2.545,4.102c-0.616,1.562-0.926,3.242-0.926,5.043v0.09
			c0,1.8,0.307,3.49,0.926,5.067c0.611,1.577,1.479,2.95,2.587,4.12c1.11,1.17,2.424,2.104,3.941,2.793
			C59.825,69.41,61.485,69.756,63.288,69.756z"/>
		<path fill="#FFFFFF" d="M99.417,72.999c-1.953,0-3.73-0.295-5.338-0.881c-1.608-0.584-2.987-1.454-4.145-2.611
			c-1.156-1.157-2.049-2.589-2.681-4.301c-0.627-1.713-0.943-3.682-0.943-5.902V40.968h3.557v18.108
			c0,3.426,0.849,6.055,2.546,7.884c1.693,1.831,4.063,2.748,7.094,2.748c2.909,0,5.223-0.869,6.933-2.614
			c1.716-1.74,2.57-4.339,2.57-7.791V40.968h3.559v18.066c0,2.311-0.315,4.338-0.945,6.078c-0.631,1.746-1.522,3.201-2.68,4.371
			c-1.157,1.171-2.54,2.05-4.145,2.634C103.191,72.704,101.399,72.999,99.417,72.999z"/>
		<path fill="#FFFFFF" d="M121.318,40.968h13.56c1.952,0,3.685,0.279,5.204,0.835c1.516,0.554,2.771,1.327,3.76,2.318
			c0.782,0.779,1.382,1.696,1.8,2.749c0.423,1.05,0.63,2.206,0.63,3.469v0.088c0,1.321-0.207,2.501-0.63,3.535
			c-0.418,1.038-1.011,1.938-1.777,2.703c-0.768,0.766-1.672,1.396-2.727,1.894c-1.05,0.495-2.194,0.848-3.423,1.059l9.686,12.879
			h-4.372l-9.143-12.247h-0.09h-8.916v12.247h-3.562V40.968L121.318,40.968z M134.59,57.051c1.172,0,2.255-0.149,3.25-0.451
			c0.992-0.301,1.851-0.726,2.573-1.283c0.723-0.559,1.288-1.231,1.694-2.027c0.407-0.796,0.607-1.707,0.607-2.726v-0.089
			c0-1.951-0.705-3.477-2.121-4.573c-1.414-1.096-3.4-1.644-5.959-1.644h-9.752v12.793H134.59L134.59,57.051z"/>
		<path fill="#FFFFFF" d="M164.533,72.952c-2.407,0-4.762-0.414-7.074-1.238c-2.312-0.825-4.415-2.098-6.305-3.805l4.097-4.912
			c1.444,1.17,2.92,2.102,4.437,2.791c1.517,0.691,3.177,1.038,4.976,1.038c1.444,0,2.56-0.267,3.357-0.789
			c0.794-0.525,1.196-1.255,1.196-2.188v-0.089c0-0.448-0.085-0.85-0.249-1.192c-0.167-0.344-0.483-0.668-0.949-0.968
			c-0.466-0.302-1.116-0.601-1.939-0.901c-0.831-0.299-1.909-0.615-3.229-0.946c-1.6-0.388-3.043-0.824-4.338-1.308
			c-1.297-0.479-2.395-1.072-3.298-1.778c-0.906-0.703-1.602-1.582-2.098-2.634c-0.503-1.051-0.75-2.36-0.75-3.918v-0.09
			c0-1.444,0.27-2.74,0.807-3.898c0.541-1.156,1.29-2.151,2.26-2.995c0.971-0.84,2.127-1.485,3.473-1.938
			c1.348-0.451,2.833-0.674,4.456-0.674c2.31,0,4.437,0.346,6.37,1.035c1.94,0.689,3.717,1.68,5.341,2.972l-3.607,5.226
			c-1.41-0.958-2.794-1.719-4.14-2.275c-1.353-0.555-2.704-0.834-4.056-0.834c-1.35,0-2.365,0.267-3.042,0.789
			c-0.675,0.526-1.014,1.18-1.014,1.962v0.09c0,0.51,0.097,0.952,0.292,1.328c0.197,0.375,0.552,0.717,1.063,1.013
			c0.508,0.302,1.21,0.587,2.099,0.854c0.888,0.272,2.009,0.589,3.363,0.948c1.599,0.421,3.019,0.894,4.271,1.416
			c1.25,0.527,2.305,1.158,3.161,1.892c0.86,0.737,1.507,1.599,1.941,2.592c0.438,0.99,0.655,2.176,0.655,3.558v0.092
			c0,1.561-0.282,2.947-0.846,4.164c-0.567,1.217-1.359,2.238-2.377,3.062c-1.011,0.829-2.222,1.458-3.627,1.896
			C167.801,72.732,166.243,72.952,164.533,72.952z"/>
		<path fill="#FFFFFF" d="M182.156,40.968h12.883c1.891,0,3.582,0.263,5.068,0.789c1.488,0.526,2.75,1.271,3.781,2.23
			c1.038,0.961,1.834,2.108,2.389,3.444c0.559,1.338,0.832,2.815,0.832,4.436v0.091c0,1.833-0.326,3.44-0.984,4.819
			c-0.664,1.381-1.568,2.535-2.73,3.472c-1.149,0.929-2.504,1.631-4.052,2.094c-1.552,0.465-3.206,0.696-4.979,0.696h-5.267v9.459
			h-6.941V40.968L182.156,40.968z M194.588,56.87c1.74,0,3.096-0.453,4.055-1.373c0.967-0.915,1.441-2.048,1.441-3.399v-0.089
			c0-1.564-0.502-2.751-1.51-3.557c-1.004-0.815-2.379-1.221-4.121-1.221H189.1v9.639H194.588z"/>
		<path fill="#FFFFFF" d="M212.127,40.968h6.939v25.272h15.717v6.258h-22.656V40.968L212.127,40.968z"/>
		<path fill="#FFFFFF" d="M239.625,40.968h6.938v31.53h-6.938V40.968z"/>
		<path fill="#FFFFFF" d="M254.459,40.968h6.396l14.774,19.413V40.968h6.849v31.53h-5.902l-15.266-20.043v20.043h-6.853
			L254.459,40.968L254.459,40.968z"/>
		<path fill="#FFFFFF" d="M339.823,72.952c-2.402,0-4.761-0.414-7.076-1.238c-2.312-0.825-4.412-2.098-6.305-3.805l4.1-4.912
			c1.441,1.17,2.92,2.102,4.438,2.791c1.518,0.691,3.176,1.038,4.979,1.038c1.441,0,2.562-0.267,3.357-0.789
			c0.793-0.525,1.188-1.255,1.188-2.188v-0.089c0-0.448-0.082-0.85-0.248-1.192c-0.168-0.344-0.479-0.668-0.942-0.968
			c-0.472-0.302-1.119-0.601-1.941-0.901c-0.83-0.299-1.908-0.615-3.227-0.946c-1.604-0.388-3.05-0.824-4.343-1.308
			c-1.297-0.479-2.395-1.072-3.297-1.778c-0.901-0.703-1.604-1.582-2.1-2.634c-0.496-1.051-0.744-2.36-0.744-3.918v-0.09
			c0-1.444,0.268-2.74,0.803-3.898c0.537-1.156,1.289-2.151,2.263-2.995c0.971-0.84,2.125-1.485,3.475-1.938
			c1.346-0.451,2.83-0.674,4.451-0.674c2.311,0,4.438,0.346,6.375,1.035c1.936,0.689,3.715,1.68,5.336,2.972l-3.607,5.226
			c-1.408-0.958-2.787-1.719-4.139-2.275c-1.354-0.555-2.705-0.834-4.057-0.834c-1.353,0-2.363,0.267-3.039,0.789
			c-0.681,0.526-1.017,1.18-1.017,1.962v0.09c0,0.51,0.101,0.952,0.295,1.328c0.193,0.375,0.552,0.717,1.062,1.013
			c0.51,0.302,1.213,0.587,2.1,0.854c0.889,0.272,2.014,0.589,3.361,0.948c1.602,0.421,3.021,0.894,4.27,1.416
			c1.25,0.527,2.31,1.158,3.162,1.892c0.861,0.737,1.506,1.599,1.941,2.592c0.436,0.99,0.653,2.176,0.653,3.558v0.092
			c0,1.561-0.282,2.947-0.848,4.164c-0.565,1.217-1.356,2.238-2.371,3.062c-1.016,0.829-2.225,1.458-3.635,1.896
			C343.09,72.732,341.534,72.952,339.823,72.952z"/>
	</g>
	<path fill="#FFFFFF" d="M318.475,40.75c-4.166,1.228-11.188,3.718-12.842,4.338c-3.648,1.375-7.422,2.491-9.479,6.517
		c-1.26,2.475-3.146,4.768-5.198,6.671c-0.593,0.545-1.086,1.113-1.537,1.691v9.038c0,0.857,0.343,1.614,0.858,2.225
		c0.938-2.754,2.121-5.394,4.05-7.716c1.196-1.424,2.299-2.931,3.377-4.446c1.31-1.862,2.942-3.229,5.151-3.934
		c2.15-0.687,4.229-1.569,6.369-2.273c2.035-0.666,4.07-1.464,6.156-1.74c1.967-0.25,3.939-0.422,5.924-0.575v-6.433
		C321.305,42.421,320.077,41.073,318.475,40.75z M299.318,41.917c1.296-0.518,2.64-0.918,4.015-1.302h-10.42
		c-1.938,0-3.496,1.567-3.496,3.497v8.027c2.248-2.711,4.24-5.256,6.397-7.627C296.782,43.444,298.01,42.433,299.318,41.917z
		 M297.713,66.391c-1.018,1.478-2.146,2.897-3.299,4.267c-0.504,0.604-0.932,1.22-1.291,1.844h1.748
		c0.49-0.689,1.066-1.289,1.684-1.612c2.662-1.382,5.322-2.763,8.021-4.075c3.539-1.725,7.311-2.402,11.231-2.653
		c1.818-0.115,3.644-0.313,5.494-0.53V57.17c-5.432,0.397-10.793,1.214-15.907,3.494C302.35,62.018,299.629,63.585,297.713,66.391z
		 M301.934,72.095c-0.391,0.159-0.705,0.286-0.979,0.403h16.85c1.812,0,3.246-1.391,3.429-3.149
		c-1.896-0.109-3.793-0.515-5.695-0.539C310.739,68.748,306.321,70.351,301.934,72.095z"/>
</g>
<g>
	<rect x="221.959" y="89.057" fill="#FFFFFF" width="57.975" height="28.986"/>
	<path fill="#EC2127" d="M246.463,94.87c0,0,1.586,1.101,2.156,0.909c1.102-0.359,2.348-4.038,2.348-4.038s1.27,3.659,2.391,4.018
		c0.55,0.171,2.072-0.972,2.072-0.972s-2.434,5.834-0.951,6.574c0.992,0.486,3.105-3.107,3.105-3.107s0.359,1.628,0.805,1.86
		c0.762,0.401,3.342-0.677,3.342-0.677s-1.312,2.959-0.91,3.869c0.171,0.379,1.419,0.803,1.419,0.803s-5.14,3.002-5.689,4.776
		c-0.147,0.468,0.527,1.903,0.527,1.903s-4.776-0.721-5.75-0.57c-0.231,1.143,0,6.006,0,6.006h-0.951c0,0,0.358-4.802,0.062-6.11
		c-0.823,0-5.604,0.72-5.604,0.72s0.592-1.502,0.445-1.988c-0.57-1.755-5.646-4.777-5.646-4.777s1.311-0.4,1.479-0.805
		c0.382-0.908-1.057-3.783-1.057-3.783s2.687,0.994,3.445,0.57c0.4-0.232,0.721-1.732,0.721-1.732s2.178,3.572,3.17,3.064
		C248.854,100.643,246.463,94.87,246.463,94.87z"/>
	<rect x="221.959" y="89.057" fill="#EC2127" width="14.42" height="28.986"/>
	<rect x="265.068" y="89.057" fill="#EC2127" width="14.863" height="28.986"/>
</g>
<g>
	<rect x="298.284" y="89.078" fill="#FFFFFF" width="53.065" height="28.965"/>
	<rect x="298.284" y="115.907" fill="#EC2127" width="53.065" height="2.136"/>
	<rect x="298.284" y="111.425" fill="#EC2127" width="53.065" height="2.136"/>
	<rect x="298.284" y="106.9" fill="#EC2127" width="53.065" height="2.136"/>
	<rect x="298.284" y="102.461" fill="#EC2127" width="53.065" height="2.137"/>
	<rect x="298.284" y="97.873" fill="#EC2127" width="53.065" height="2.136"/>
	<rect x="298.284" y="93.411" fill="#EC2127" width="53.065" height="2.136"/>
	<rect x="298.284" y="89.057" fill="#EC2127" width="53.065" height="2.135"/>
	<rect x="298.284" y="89.078" fill="#2E358F" width="23.594" height="15.561"/>
	<polygon fill="#FFFFFF" points="299.911,89.458 300.165,90.051 300.948,90.051 300.312,90.432 300.545,91.021 299.911,90.643 
		299.275,91.021 299.51,90.432 298.875,90.051 299.68,90.051 	"/>
	<polygon fill="#FFFFFF" points="301.898,91.086 302.131,91.68 302.936,91.68 302.301,92.038 302.534,92.65 301.898,92.271 
		301.266,92.65 301.497,92.038 300.861,91.68 301.646,91.68 	"/>
	<polygon fill="#FFFFFF" points="306.022,91.086 306.254,91.68 307.057,91.68 306.422,92.038 306.655,92.65 306.022,92.271 
		305.366,92.65 305.62,92.038 304.984,91.68 305.77,91.68 	"/>
	<polygon fill="#FFFFFF" points="309.932,91.086 310.165,91.68 310.969,91.68 310.334,92.038 310.567,92.65 309.932,92.271 
		309.299,92.65 309.53,92.038 308.897,91.68 309.678,91.68 	"/>
	<polygon fill="#FFFFFF" points="314.075,91.086 314.331,91.68 315.112,91.68 314.479,92.038 314.711,92.65 314.075,92.271 
		313.442,92.65 313.674,92.038 313.04,91.68 313.823,91.68 	"/>
	<polygon fill="#FFFFFF" points="318.114,91.086 318.368,91.68 319.151,91.68 318.516,92.038 318.749,92.65 318.114,92.271 
		317.479,92.65 317.713,92.038 317.079,91.68 317.881,91.68 	"/>
	<polygon fill="#FFFFFF" points="301.898,94.343 302.131,94.936 302.936,94.936 302.301,95.293 302.534,95.886 301.898,95.525 
		301.266,95.886 301.497,95.293 300.861,94.936 301.646,94.936 	"/>
	<polygon fill="#FFFFFF" points="306.022,94.343 306.254,94.936 307.057,94.936 306.422,95.293 306.655,95.886 306.022,95.525 
		305.366,95.886 305.62,95.293 304.984,94.936 305.77,94.936 	"/>
	<polygon fill="#FFFFFF" points="309.932,94.343 310.165,94.936 310.969,94.936 310.334,95.293 310.567,95.886 309.932,95.525 
		309.299,95.886 309.53,95.293 308.897,94.936 309.678,94.936 	"/>
	<polygon fill="#FFFFFF" points="314.075,94.343 314.331,94.936 315.112,94.936 314.479,95.293 314.711,95.886 314.075,95.525 
		313.442,95.886 313.674,95.293 313.04,94.936 313.823,94.936 	"/>
	<polygon fill="#FFFFFF" points="318.114,94.343 318.368,94.936 319.151,94.936 318.516,95.293 318.749,95.886 318.114,95.525 
		317.479,95.886 317.713,95.293 317.079,94.936 317.881,94.936 	"/>
	<polygon fill="#FFFFFF" points="301.898,97.387 302.131,97.979 302.936,97.979 302.301,98.339 302.534,98.93 301.898,98.57 
		301.266,98.93 301.497,98.339 300.861,97.979 301.646,97.979 	"/>
	<polygon fill="#FFFFFF" points="306.022,97.387 306.254,97.979 307.057,97.979 306.422,98.339 306.655,98.93 306.022,98.57 
		305.366,98.93 305.62,98.339 304.984,97.979 305.77,97.979 	"/>
	<polygon fill="#FFFFFF" points="309.932,97.387 310.165,97.979 310.969,97.979 310.334,98.339 310.567,98.93 309.932,98.57 
		309.299,98.93 309.53,98.339 308.897,97.979 309.678,97.979 	"/>
	<polygon fill="#FFFFFF" points="314.075,97.387 314.331,97.979 315.112,97.979 314.479,98.339 314.711,98.93 314.075,98.57 
		313.442,98.93 313.674,98.339 313.04,97.979 313.823,97.979 	"/>
	<polygon fill="#FFFFFF" points="318.114,97.387 318.368,97.979 319.151,97.979 318.516,98.339 318.749,98.93 318.114,98.57 
		317.479,98.93 317.713,98.339 317.079,97.979 317.881,97.979 	"/>
	<polygon fill="#FFFFFF" points="301.898,100.621 302.131,101.213 302.936,101.213 302.301,101.573 302.534,102.165 
		301.898,101.805 301.266,102.165 301.497,101.573 300.861,101.213 301.646,101.213 	"/>
	<polygon fill="#FFFFFF" points="306.022,100.621 306.254,101.213 307.057,101.213 306.422,101.573 306.655,102.165 
		306.022,101.805 305.366,102.165 305.62,101.573 304.984,101.213 305.77,101.213 	"/>
	<polygon fill="#FFFFFF" points="309.932,100.621 310.165,101.213 310.969,101.213 310.334,101.573 310.567,102.165 
		309.932,101.805 309.299,102.165 309.53,101.573 308.897,101.213 309.678,101.213 	"/>
	<polygon fill="#FFFFFF" points="314.075,100.621 314.331,101.213 315.112,101.213 314.479,101.573 314.711,102.165 
		314.075,101.805 313.442,102.165 313.674,101.573 313.04,101.213 313.823,101.213 	"/>
	<polygon fill="#FFFFFF" points="318.114,100.621 318.368,101.213 319.151,101.213 318.516,101.573 318.749,102.165 
		318.114,101.805 317.479,102.165 317.713,101.573 317.079,101.213 317.881,101.213 	"/>
	<polygon fill="#FFFFFF" points="303.93,89.458 304.184,90.051 304.963,90.051 304.331,90.432 304.562,91.021 303.93,90.643 
		303.293,91.021 303.525,90.432 302.893,90.051 303.695,90.051 	"/>
	<polygon fill="#FFFFFF" points="307.946,89.458 308.2,90.051 308.981,90.051 308.346,90.432 308.579,91.021 307.946,90.643 
		307.312,91.021 307.543,90.432 306.909,90.051 307.711,90.051 	"/>
	<polygon fill="#FFFFFF" points="312.047,89.458 312.28,90.051 313.083,90.051 312.428,90.432 312.68,91.021 312.047,90.643 
		311.391,91.021 311.647,90.432 311.01,90.051 311.793,90.051 	"/>
	<polygon fill="#FFFFFF" points="316.106,89.458 316.36,90.051 317.141,90.051 316.508,90.432 316.741,91.021 316.106,90.643 
		315.471,91.021 315.706,90.432 315.071,90.051 315.874,90.051 	"/>
	<polygon fill="#FFFFFF" points="320.124,89.458 320.377,90.051 321.159,90.051 320.526,90.432 320.758,91.021 320.124,90.643 
		319.489,91.021 319.721,90.432 319.086,90.051 319.891,90.051 	"/>
	<polygon fill="#FFFFFF" points="299.911,92.777 300.165,93.369 300.948,93.369 300.312,93.75 300.545,94.343 299.911,93.961 
		299.275,94.343 299.51,93.75 298.875,93.369 299.68,93.369 	"/>
	<polygon fill="#FFFFFF" points="303.93,92.777 304.184,93.369 304.963,93.369 304.331,93.75 304.562,94.343 303.93,93.961 
		303.293,94.343 303.525,93.75 302.893,93.369 303.695,93.369 	"/>
	<polygon fill="#FFFFFF" points="307.946,92.777 308.2,93.369 308.981,93.369 308.346,93.75 308.579,94.343 307.946,93.961 
		307.312,94.343 307.543,93.75 306.909,93.369 307.711,93.369 	"/>
	<polygon fill="#FFFFFF" points="312.047,92.777 312.28,93.369 313.083,93.369 312.428,93.75 312.68,94.343 312.047,93.961 
		311.391,94.343 311.647,93.75 311.01,93.369 311.793,93.369 	"/>
	<polygon fill="#FFFFFF" points="316.106,92.777 316.36,93.369 317.141,93.369 316.508,93.75 316.741,94.343 316.106,93.961 
		315.471,94.343 315.706,93.75 315.071,93.369 315.874,93.369 	"/>
	<polygon fill="#FFFFFF" points="320.124,92.777 320.377,93.369 321.159,93.369 320.526,93.75 320.758,94.343 320.124,93.961 
		319.489,94.343 319.721,93.75 319.086,93.369 319.891,93.369 	"/>
	<polygon fill="#FFFFFF" points="299.911,95.844 300.165,96.436 300.948,96.436 300.312,96.795 300.545,97.387 299.911,97.027 
		299.275,97.387 299.51,96.795 298.875,96.436 299.68,96.436 	"/>
	<polygon fill="#FFFFFF" points="303.93,95.844 304.184,96.436 304.963,96.436 304.331,96.795 304.562,97.387 303.93,97.027 
		303.293,97.387 303.525,96.795 302.893,96.436 303.695,96.436 	"/>
	<polygon fill="#FFFFFF" points="307.946,95.844 308.2,96.436 308.981,96.436 308.346,96.795 308.579,97.387 307.946,97.027 
		307.312,97.387 307.543,96.795 306.909,96.436 307.711,96.436 	"/>
	<polygon fill="#FFFFFF" points="312.047,95.844 312.28,96.436 313.083,96.436 312.428,96.795 312.68,97.387 312.047,97.027 
		311.391,97.387 311.647,96.795 311.01,96.436 311.793,96.436 	"/>
	<polygon fill="#FFFFFF" points="316.106,95.844 316.36,96.436 317.141,96.436 316.508,96.795 316.741,97.387 316.106,97.027 
		315.471,97.387 315.706,96.795 315.071,96.436 315.874,96.436 	"/>
	<polygon fill="#FFFFFF" points="320.124,95.844 320.377,96.436 321.159,96.436 320.526,96.795 320.758,97.387 320.124,97.027 
		319.489,97.387 319.721,96.795 319.086,96.436 319.891,96.436 	"/>
	<polygon fill="#FFFFFF" points="299.911,99.035 300.165,99.628 300.948,99.628 300.312,100.009 300.545,100.602 299.911,100.22 
		299.275,100.602 299.51,100.009 298.875,99.628 299.68,99.628 	"/>
	<polygon fill="#FFFFFF" points="303.93,99.035 304.184,99.628 304.963,99.628 304.331,100.009 304.562,100.602 303.93,100.22 
		303.293,100.602 303.525,100.009 302.893,99.628 303.695,99.628 	"/>
	<polygon fill="#FFFFFF" points="307.946,99.035 308.2,99.628 308.981,99.628 308.346,100.009 308.579,100.602 307.946,100.22 
		307.312,100.602 307.543,100.009 306.909,99.628 307.711,99.628 	"/>
	<polygon fill="#FFFFFF" points="312.047,99.035 312.28,99.628 313.083,99.628 312.428,100.009 312.68,100.602 312.047,100.22 
		311.391,100.602 311.647,100.009 311.01,99.628 311.793,99.628 	"/>
	<polygon fill="#FFFFFF" points="316.106,99.035 316.36,99.628 317.141,99.628 316.508,100.009 316.741,100.602 316.106,100.22 
		315.471,100.602 315.706,100.009 315.071,99.628 315.874,99.628 	"/>
	<polygon fill="#FFFFFF" points="320.124,99.035 320.377,99.628 321.159,99.628 320.526,100.009 320.758,100.602 320.124,100.22 
		319.489,100.602 319.721,100.009 319.086,99.628 319.891,99.628 	"/>
	<polygon fill="#FFFFFF" points="299.911,102.25 300.165,102.842 300.948,102.842 300.312,103.201 300.545,103.793 299.911,103.436 
		299.275,103.793 299.51,103.201 298.875,102.842 299.68,102.842 	"/>
	<polygon fill="#FFFFFF" points="303.93,102.25 304.184,102.842 304.963,102.842 304.331,103.201 304.562,103.793 303.93,103.436 
		303.293,103.793 303.525,103.201 302.893,102.842 303.695,102.842 	"/>
	<polygon fill="#FFFFFF" points="307.946,102.25 308.2,102.842 308.981,102.842 308.346,103.201 308.579,103.793 307.946,103.436 
		307.312,103.793 307.543,103.201 306.909,102.842 307.711,102.842 	"/>
	<polygon fill="#FFFFFF" points="312.047,102.25 312.28,102.842 313.083,102.842 312.428,103.201 312.68,103.793 312.047,103.436 
		311.391,103.793 311.647,103.201 311.01,102.842 311.793,102.842 	"/>
	<polygon fill="#FFFFFF" points="316.106,102.25 316.36,102.842 317.141,102.842 316.508,103.201 316.741,103.793 316.106,103.436 
		315.471,103.793 315.706,103.201 315.071,102.842 315.874,102.842 	"/>
	<polygon fill="#FFFFFF" points="320.124,102.25 320.377,102.842 321.159,102.842 320.526,103.201 320.758,103.793 320.124,103.436 
		319.489,103.793 319.721,103.201 319.086,102.842 319.891,102.842 	"/>
</g>
<g>
	<path fill="#FFFFFF" d="M32.113,95.689h-8.264l-0.833,5.498c0.5-0.065,0.966-0.133,1.766-0.133c1.7,0,3.333,0.366,4.666,1.166
		c1.7,0.934,3.099,2.834,3.099,5.631c0,4.234-3.366,7.399-8.065,7.399c-2.366,0-4.333-0.667-5.399-1.333l0.733-2.232
		c0.9,0.532,2.666,1.199,4.666,1.199c2.733,0,5.133-1.8,5.099-4.73c0-2.867-1.9-4.834-6.199-4.834c-1.267,0-2.233,0.101-3.033,0.234
		l1.399-10.332h10.364L32.113,95.689L32.113,95.689z"/>
	<path fill="#FFFFFF" d="M42.645,95.957h-0.067l-3.766,2.032l-0.566-2.233l4.732-2.531h2.499v21.661h-2.833L42.645,95.957
		L42.645,95.957z"/>
	<path fill="#FFFFFF" d="M62.441,114.886v-5.897H52.377v-1.9l9.664-13.863h3.166v13.496h3.033v2.269h-3.033v5.897L62.441,114.886
		L62.441,114.886z M62.441,106.72v-7.265c0-1.132,0.034-2.268,0.1-3.398h-0.1c-0.667,1.267-1.2,2.199-1.799,3.232l-5.299,7.363
		v0.066L62.441,106.72L62.441,106.72z"/>
	<path fill="#FFFFFF" d="M86.603,114.886v-5.897H76.539v-1.9l9.664-13.863h3.167v13.496h3.032v2.269H89.37v5.897L86.603,114.886
		L86.603,114.886z M86.603,106.72v-7.265c0-1.132,0.033-2.268,0.1-3.398h-0.1c-0.667,1.267-1.2,2.199-1.8,3.232l-5.298,7.363v0.066
		L86.603,106.72L86.603,106.72z"/>
	<path fill="#FFFFFF" d="M106.999,95.256c-0.6-0.031-1.366,0.034-2.199,0.167c-4.633,0.733-7.032,4.099-7.532,7.698h0.067
		c1.033-1.398,2.867-2.532,5.266-2.532c3.833,0,6.532,2.8,6.532,6.997c0,4-2.7,7.666-7.232,7.666c-4.599,0-7.632-3.6-7.632-9.23
		c0-4.267,1.5-7.633,3.666-9.797c1.8-1.768,4.199-2.867,6.932-3.201c0.867-0.133,1.6-0.166,2.133-0.166L106.999,95.256
		L106.999,95.256z M101.967,112.984c2.499,0,4.199-2.1,4.199-5.197c0-3.1-1.766-4.967-4.466-4.967c-1.766,0-3.433,1.066-4.232,2.666
		c-0.166,0.334-0.3,0.732-0.3,1.267c0.033,3.567,1.699,6.231,4.766,6.231H101.967z"/>
	<path fill="#FFFFFF" d="M118.097,95.957h-0.067l-3.766,2.032l-0.566-2.233l4.732-2.531h2.5v21.661h-2.833V95.957z"/>
	<path fill="#FFFFFF" d="M136.56,104.82v2.133h-8.231v-2.133H136.56z"/>
	<path fill="#FFFFFF" d="M139.759,111.553c0.833,0.5,2.733,1.333,4.799,1.333c3.732,0,4.932-2.366,4.898-4.2
		c-0.033-3.03-2.766-4.33-5.599-4.33h-1.633v-2.199h1.633c2.133,0,4.832-1.102,4.832-3.667c0-1.732-1.1-3.265-3.799-3.265
		c-1.732,0-3.399,0.766-4.332,1.433l-0.8-2.134c1.167-0.834,3.366-1.666,5.699-1.666c4.266,0,6.198,2.533,6.198,5.164
		c0,2.269-1.366,4.166-3.999,5.134v0.065c2.666,0.5,4.832,2.5,4.832,5.533c0,3.465-2.733,6.498-7.898,6.498
		c-2.433,0-4.566-0.768-5.632-1.467L139.759,111.553z"/>
	<path fill="#FFFFFF" d="M163.054,115.252c-4.232,0-7.131-3.967-7.198-11.131c0-7.299,3.166-11.266,7.565-11.266
		c4.533,0,7.166,4.065,7.166,10.967c0,7.363-2.766,11.43-7.499,11.43H163.054z M163.188,112.984c2.966,0,4.399-3.498,4.399-9.03
		c0-5.332-1.333-8.83-4.399-8.83c-2.667,0-4.399,3.397-4.399,8.83c-0.067,5.633,1.666,9.03,4.366,9.03H163.188z"/>
	<path fill="#FFFFFF" d="M179.618,95.957h-0.067l-3.766,2.032l-0.566-2.233l4.732-2.531h2.499v21.661h-2.833L179.618,95.957
		L179.618,95.957z"/>
	<path fill="#FFFFFF" d="M197.248,115.252c-4.232,0-7.132-3.967-7.199-11.131c0-7.299,3.166-11.266,7.564-11.266
		c4.533,0,7.166,4.065,7.166,10.967c0,7.363-2.766,11.43-7.498,11.43H197.248z M197.381,112.984c2.965,0,4.398-3.498,4.398-9.03
		c0-5.332-1.334-8.83-4.398-8.83c-2.667,0-4.4,3.397-4.4,8.83c-0.065,5.633,1.668,9.03,4.367,9.03H197.381z"/>
</g>
</svg>
