<?xml version="1.0" encoding="utf-8"?>
<!-- Generator: Adobe Illustrator 16.0.4, SVG Export Plug-In . SVG Version: 6.00 Build 0)  -->
<!DOCTYPE svg PUBLIC "-//W3C//DTD SVG 1.1//EN" "http://www.w3.org/Graphics/SVG/1.1/DTD/svg11.dtd">
<svg version="1.1" id="Layer_1" xmlns="http://www.w3.org/2000/svg" xmlns:xlink="http://www.w3.org/1999/xlink" x="0px" y="0px"
	 width="390.195px" height="104.04px" viewBox="0 0 390.195 104.04" enable-background="new 0 0 390.195 104.04"
	 xml:space="preserve">
<g>
	<g>
		<g>
			<path fill="#FFFFFF" d="M13.875,25.706H39.01v3.65H17.824v12.543h18.938v3.545H17.824v15.234h-3.948L13.875,25.706L13.875,25.706
				z"/>
			<path fill="#FFFFFF" d="M61.797,61.282c-2.667,0-5.089-0.48-7.273-1.443c-2.182-0.969-4.053-2.27-5.623-3.924
				c-1.565-1.646-2.772-3.562-3.62-5.74c-0.855-2.184-1.276-4.473-1.276-6.873v-0.1c0-2.396,0.432-4.693,1.298-6.896
				c0.867-2.199,2.085-4.125,3.65-5.773c1.565-1.647,3.448-2.965,5.646-3.946c2.195-0.979,4.627-1.474,7.292-1.474
				c2.667,0,5.089,0.482,7.275,1.447c2.178,0.967,4.053,2.275,5.62,3.924c1.567,1.649,2.776,3.562,3.622,5.742
				c0.849,2.182,1.272,4.471,1.272,6.871c0.033,0.029,0.033,0.066,0,0.1c0,2.396-0.434,4.695-1.298,6.896
				c-0.867,2.197-2.085,4.123-3.65,5.77c-1.565,1.647-3.447,2.965-5.644,3.947C66.894,60.79,64.463,61.282,61.797,61.282z
				 M61.897,57.635c2.002,0,3.838-0.379,5.522-1.129c1.684-0.744,3.12-1.77,4.322-3.072c1.205-1.295,2.146-2.807,2.825-4.543
				c0.684-1.732,1.028-3.602,1.028-5.598v-0.1c0-1.996-0.342-3.871-1.028-5.623c-0.678-1.748-1.643-3.271-2.872-4.568
				c-1.231-1.301-2.691-2.332-4.371-3.1c-1.684-0.767-3.523-1.148-5.522-1.148c-2.002,0-3.838,0.379-5.524,1.129
				c-1.681,0.746-3.121,1.771-4.319,3.07c-1.205,1.301-2.146,2.812-2.822,4.551c-0.684,1.732-1.028,3.6-1.028,5.596v0.1
				c0,1.998,0.34,3.873,1.028,5.625c0.677,1.746,1.64,3.271,2.869,4.566c1.231,1.295,2.688,2.33,4.374,3.096
				C58.055,57.252,59.898,57.635,61.897,57.635z"/>
			<path fill="#FFFFFF" d="M101.977,61.235c-2.167,0-4.139-0.33-5.922-0.979c-1.782-0.646-3.313-1.608-4.597-2.896
				c-1.281-1.283-2.272-2.869-2.975-4.771c-0.695-1.897-1.046-4.084-1.046-6.545V25.706h3.946v20.09
				c0,3.801,0.941,6.715,2.825,8.746c1.877,2.029,4.507,3.045,7.869,3.045c3.225,0,5.793-0.963,7.689-2.898
				c1.905-1.93,2.853-4.811,2.853-8.641V25.706h3.946v20.041c0,2.562-0.349,4.812-1.047,6.744c-0.701,1.936-1.688,3.547-2.975,4.846
				c-1.285,1.297-2.814,2.271-4.598,2.922C106.163,60.905,104.174,61.235,101.977,61.235z"/>
			<path fill="#FFFFFF" d="M126.271,25.706h15.043c2.166,0,4.088,0.312,5.771,0.928c1.682,0.613,3.072,1.473,4.172,2.57
				c0.867,0.863,1.533,1.883,1.997,3.049c0.47,1.166,0.698,2.445,0.698,3.85V36.2c0,1.467-0.229,2.775-0.698,3.922
				c-0.464,1.15-1.121,2.15-1.973,3c-0.853,0.849-1.854,1.548-3.023,2.101c-1.165,0.55-2.435,0.938-3.799,1.173l10.748,14.284
				h-4.854L140.21,47.095h-0.1h-9.891v13.583h-3.951V25.706H126.271z M140.992,43.545c1.301,0,2.502-0.166,3.606-0.5
				c1.099-0.334,2.051-0.805,2.854-1.426c0.801-0.619,1.428-1.363,1.877-2.246c0.454-0.885,0.675-1.895,0.675-3.025V36.25
				c0-2.166-0.783-3.855-2.354-5.072c-1.567-1.215-3.771-1.822-6.609-1.822h-10.818v14.189H140.992L140.992,43.545z"/>
			<path fill="#FFFFFF" d="M174.208,61.182c-2.671,0-5.282-0.459-7.85-1.373c-2.563-0.916-4.896-2.328-6.992-4.223l4.546-5.447
				c1.603,1.299,3.237,2.33,4.922,3.094c1.681,0.769,3.521,1.152,5.521,1.152c1.604,0,2.838-0.295,3.727-0.875
				c0.881-0.584,1.326-1.391,1.326-2.432v-0.098c0-0.496-0.096-0.941-0.275-1.322c-0.188-0.381-0.535-0.738-1.053-1.072
				c-0.516-0.336-1.236-0.666-2.148-1c-0.922-0.332-2.119-0.684-3.578-1.051c-1.778-0.432-3.383-0.914-4.812-1.447
				c-1.439-0.533-2.656-1.191-3.659-1.975c-1.004-0.783-1.774-1.756-2.325-2.924c-0.56-1.166-0.832-2.617-0.832-4.347v-0.097
				c0-1.602,0.299-3.038,0.896-4.325c0.603-1.281,1.432-2.388,2.508-3.324c1.076-0.933,2.358-1.646,3.854-2.147
				c1.498-0.502,3.144-0.748,4.939-0.748c2.562,0,4.924,0.385,7.062,1.147c2.154,0.765,4.123,1.861,5.929,3.298l-4,5.797
				c-1.565-1.064-3.104-1.906-4.595-2.523c-1.502-0.617-3.002-0.926-4.504-0.926c-1.498,0-2.621,0.295-3.375,0.875
				c-0.748,0.584-1.123,1.309-1.123,2.176v0.102c0,0.564,0.105,1.057,0.324,1.475c0.217,0.414,0.613,0.793,1.182,1.121
				c0.562,0.336,1.341,0.652,2.324,0.949c0.984,0.303,2.229,0.652,3.729,1.049c1.778,0.472,3.351,0.994,4.741,1.574
				c1.383,0.586,2.557,1.281,3.504,2.098c0.959,0.816,1.676,1.771,2.152,2.875c0.485,1.097,0.729,2.41,0.729,3.943v0.102
				c0,1.732-0.314,3.271-0.939,4.621c-0.627,1.351-1.504,2.479-2.635,3.396c-1.121,0.916-2.463,1.619-4.025,2.103
				C177.834,60.938,176.104,61.182,174.208,61.182z"/>
			<path fill="#FFFFFF" d="M193.756,25.706h14.293c2.095,0,3.976,0.293,5.623,0.875c1.651,0.584,3.05,1.41,4.194,2.475
				c1.15,1.064,2.034,2.34,2.648,3.82c0.618,1.482,0.92,3.125,0.92,4.922v0.1c0,2.033-0.358,3.816-1.089,5.346
				c-0.734,1.533-1.739,2.812-3.03,3.853c-1.274,1.031-2.778,1.81-4.494,2.321c-1.721,0.52-3.562,0.773-5.524,0.773h-5.842v10.488
				h-7.699V25.706L193.756,25.706z M207.551,43.346c1.929,0,3.433-0.504,4.494-1.521c1.072-1.018,1.604-2.272,1.604-3.772v-0.099
				c0-1.733-0.56-3.053-1.678-3.946c-1.111-0.901-2.638-1.354-4.57-1.354h-5.939v10.693H207.551z"/>
			<path fill="#FFFFFF" d="M227.006,25.706h7.699v28.035h17.434v6.938h-25.133V25.706L227.006,25.706z"/>
			<path fill="#FFFFFF" d="M257.51,25.706h7.693v34.973h-7.693V25.706L257.51,25.706z"/>
			<path fill="#FFFFFF" d="M273.964,25.706h7.102l16.391,21.535V25.706h7.597v34.973h-6.547l-16.937-22.23v22.23h-7.604
				L273.964,25.706L273.964,25.706z"/>
			<path fill="#FFFFFF" d="M368.656,61.182c-2.664,0-5.277-0.459-7.853-1.373c-2.561-0.916-4.893-2.328-6.992-4.223l4.55-5.447
				c1.6,1.299,3.236,2.33,4.92,3.094c1.683,0.769,3.521,1.152,5.521,1.152c1.603,0,2.848-0.295,3.729-0.875
				c0.88-0.584,1.32-1.391,1.32-2.432v-0.098c0-0.496-0.09-0.941-0.272-1.322c-0.188-0.381-0.53-0.738-1.049-1.072
				c-0.521-0.336-1.24-0.666-2.152-1c-0.918-0.332-2.114-0.684-3.576-1.051c-1.774-0.432-3.383-0.914-4.812-1.447
				c-1.441-0.533-2.657-1.191-3.659-1.975c-1.003-0.783-1.782-1.756-2.327-2.924c-0.553-1.166-0.825-2.617-0.825-4.347v-0.097
				c0-1.602,0.296-3.038,0.893-4.325c0.596-1.281,1.43-2.388,2.506-3.324c1.076-0.933,2.354-1.646,3.854-2.147
				c1.494-0.502,3.143-0.748,4.938-0.748c2.562,0,4.927,0.385,7.071,1.147c2.147,0.765,4.122,1.861,5.923,3.298l-4.002,5.797
				c-1.562-1.064-3.095-1.906-4.595-2.523c-1.498-0.617-3.002-0.926-4.5-0.926s-2.623,0.295-3.373,0.875
				c-0.75,0.584-1.125,1.309-1.125,2.176v0.102c0,0.564,0.108,1.057,0.329,1.475c0.212,0.414,0.607,0.793,1.177,1.121
				c0.562,0.336,1.343,0.652,2.323,0.949c0.984,0.303,2.232,0.652,3.731,1.049c1.776,0.472,3.353,0.994,4.74,1.574
				c1.385,0.586,2.559,1.281,3.506,2.098c0.956,0.816,1.672,1.771,2.147,2.875c0.484,1.097,0.729,2.41,0.729,3.943v0.102
				c0,1.732-0.316,3.271-0.941,4.621c-0.625,1.351-1.504,2.479-2.627,3.396c-1.127,0.916-2.469,1.619-4.033,2.103
				C372.283,60.938,370.555,61.182,368.656,61.182z"/>
		</g>
		<path fill="#FFFFFF" d="M344.977,25.463c-4.62,1.359-12.411,4.125-14.241,4.812c-4.054,1.525-8.234,2.764-10.521,7.229
			c-1.395,2.744-3.49,5.287-5.768,7.398c-0.655,0.604-1.205,1.233-1.705,1.875V56.8c0,0.951,0.382,1.793,0.956,2.47
			c1.038-3.056,2.353-5.98,4.493-8.56c1.321-1.578,2.549-3.25,3.737-4.931c1.453-2.067,3.271-3.582,5.72-4.365
			c2.389-0.76,4.69-1.739,7.065-2.52c2.259-0.736,4.518-1.623,6.828-1.931c2.182-0.276,4.37-0.468,6.572-0.638V29.19
			C348.117,27.317,346.754,25.821,344.977,25.463z M323.727,26.756c1.438-0.574,2.931-1.018,4.45-1.441h-11.559
			c-2.149,0-3.876,1.738-3.876,3.879v8.904c2.494-3.008,4.701-5.83,7.098-8.459C320.914,28.452,322.275,27.327,323.727,26.756z
			 M321.946,53.905c-1.131,1.642-2.387,3.211-3.659,4.732c-0.562,0.674-1.035,1.354-1.437,2.043h1.938
			c0.545-0.766,1.186-1.43,1.865-1.789c2.955-1.531,5.907-3.062,8.897-4.52c3.926-1.916,8.107-2.662,12.459-2.941
			c2.019-0.127,4.039-0.35,6.099-0.588v-7.168c-6.025,0.441-11.977,1.35-17.646,3.877C327.088,49.055,324.072,50.795,321.946,53.905
			z M326.627,60.231c-0.432,0.178-0.781,0.318-1.086,0.447h18.691c2.01,0,3.601-1.545,3.799-3.494
			c-2.104-0.123-4.207-0.57-6.317-0.6C336.396,56.518,331.494,58.295,326.627,60.231z"/>
	</g>
</g>
<text transform="matrix(1 0 0 1 12.3486 81.0845)" fill="#FFFFFF" font-family="'EurostileLTStd'" font-size="17.4879">HARDWARE &amp; CUSTOM MANUFACTURING</text>
</svg>
